<svg xmlns="http://www.w3.org/2000/svg" width="120" height="131" viewBox="0 0 120 131" fill="none">
<path d="M116.163 83.9017L110.217 80.4118V15.948C110.217 0.788329 90.9347 -5.76935 81.6585 6.15114L78.5024 10.2065C73.7107 9.15493 68.7552 10.8359 65.5786 14.6917C64.9054 15.5105 65.0206 16.7181 65.8397 17.3936L83.1533 31.6552C83.9724 32.3307 85.1831 32.2104 85.8563 31.3942C89.1455 27.4028 89.7624 21.907 87.5508 17.3348L90.7504 13.2205C93.3306 9.9046 98.6956 11.7263 98.6956 15.9454V73.652L80.1508 62.7728C78.6048 61.8671 76.7797 61.5293 75.011 61.821L55.9056 64.9834V59.0168H80.1585C87.8529 59.0168 87.8529 47.3752 80.1585 47.3752H66.5564C69.1391 44.1514 68.7987 41.2295 68.7987 37.6474C68.7987 36.5882 67.9386 35.7285 66.8789 35.7285H46.12V27.019C46.12 23.7594 51.0576 23.7568 51.0576 27.019V29.6774C51.0576 32.213 54.8971 32.2155 54.8971 29.6774V27.019C54.8971 18.6857 42.2805 18.6857 42.2805 27.019V35.7285H39.0732C38.0135 35.7285 37.1534 36.5882 37.1534 37.6474C37.1534 41.1681 36.7874 44.1207 39.3957 47.3752H38.4333C30.7389 47.3752 30.7389 59.0168 38.4333 59.0168H43.911V66.9689L33.5085 68.6908L14.4722 34.9251C9.49106 26.0928 -3.88835 33.6228 1.09277 42.4653L22.7706 80.9158C28.1895 90.5387 33.9846 97.5825 45.5773 97.5825C49.2965 97.5825 51.7103 96.7305 53.9858 96.0422V105.414H46.0253C38.702 105.414 32.6356 110.885 31.6937 117.951H21.35C12.7239 117.951 12.7239 131 21.35 131H105.824C114.45 131 114.45 117.951 105.824 117.951H95.4781C94.5362 110.885 88.4697 105.414 81.1465 105.414H73.186V90.7536C80.9878 89.6304 84.7582 90.6129 101.488 93.0947L108.389 97.1424C117.159 102.285 124.904 89.0317 116.163 83.9017ZM83.9622 27.3491L69.9147 15.7791C73.3395 13.0261 78.2234 13.067 81.6329 15.8764C85.0449 18.6806 85.9869 23.4779 83.9596 27.3516L83.9622 27.3491ZM87.7223 10.8666L85.2676 14.0239C84.4767 13.1822 83.3888 12.3046 82.2497 11.6496L84.6917 8.51016C91.7487 -0.560051 106.377 4.44968 106.377 15.9506V78.1628L102.538 75.9086V15.948C102.538 8.08032 92.5371 4.68251 87.7223 10.8666ZM40.9955 41.0094V39.5741H64.9617V41.0094C64.9617 44.5249 62.1026 47.3829 58.5856 47.3829H47.3691C43.8547 47.3829 40.9929 44.5249 40.9929 41.0094H40.9955ZM38.4358 51.2208H80.1611C82.7822 51.2208 82.7822 55.184 80.1611 55.184C76.6006 55.184 93.0567 55.184 38.4358 55.184C35.8147 55.184 35.8147 51.2208 38.4358 51.2208ZM47.753 66.3395V59.0245H52.0686V65.6256C48.0807 66.2858 48.9433 66.1425 47.753 66.3395ZM105.822 127.162H21.35C17.7972 127.162 17.7972 121.789 21.35 121.789H105.824C109.377 121.789 109.377 127.162 105.824 127.162H105.822ZM91.5951 117.951H35.5767C36.4828 113.008 40.824 109.252 46.0253 109.252H81.1465C86.3478 109.252 90.689 113.011 91.5951 117.951ZM57.8254 105.414V94.8806C66.9429 92.1199 67.5649 91.9024 69.3439 91.4828V105.414H57.8254ZM65.6093 88.5123L50.968 92.9438C42.7617 95.4282 33.9794 91.9638 29.5922 84.8202C30.4292 84.8074 28.1588 85.1426 74.7781 77.4259L92.6343 87.9008C85.498 86.8415 77.133 85.0198 65.6093 88.5123ZM110.332 93.8316C110.058 93.6704 76.8309 74.179 76.1219 73.7645C75.7354 73.5368 75.2798 73.4524 74.8369 73.5266L30.0887 80.9337C28.5478 81.187 26.925 80.4706 26.1161 79.0327L4.43827 40.5796C1.94259 36.1507 8.63869 32.3972 11.1267 36.8082L30.8259 71.7509C31.2227 72.4545 32.0136 72.8307 32.8122 72.7027C36.9435 72.0196 34.5554 72.4136 75.6407 65.6129C76.5238 65.4645 77.4376 65.6359 78.2106 66.0888C105.033 81.8215 95.9363 76.4843 114.22 87.2125C118.582 89.7711 114.722 96.4081 110.334 93.8316H110.332Z" fill="#A48ECA"/>
</svg>