<svg xmlns="http://www.w3.org/2000/svg" width="128" height="68" viewBox="0 0 128 68" fill="none">
<path d="M114.76 19.1884V3.67838C114.76 2.6433 114.064 1.75378 113.072 1.51118C104.928 -0.453858 96.44 -0.486204 88.28 1.40605C80.12 -0.486204 71.632 -0.445771 63.488 1.51118C62.496 1.75378 61.8 2.65139 61.8 3.67838V11.393L60.392 10.4226C59.64 9.90504 58.656 9.90504 57.904 10.4226L49.44 16.2611L41.936 11.0857V3.67838C41.936 2.6433 41.24 1.75378 40.248 1.51118C31.92 -0.502377 23.248 -0.502377 14.936 1.50309C13.944 1.74569 13.248 2.6433 13.248 3.6703V19.1884C5.72 20.3933 0.136 26.8707 0 34.5691V58.57C0 59.597 0.696 60.4946 1.68 60.7372C22.096 65.6458 43.016 68.0799 64 67.9909C84.984 68.0799 105.904 65.6377 126.32 60.7372C127.304 60.4946 128 59.597 128 58.57V34.5772C127.864 26.8788 122.28 20.3933 114.76 19.1884ZM110.344 5.46552V25.6415C110.344 31.1889 105.896 35.677 100.416 35.677C94.936 35.677 90.488 31.1808 90.488 25.6415V5.46552C97.04 4.12314 103.792 4.12314 110.352 5.46552H110.344ZM66.208 5.46552C72.76 4.12314 79.512 4.12314 86.072 5.46552V25.6415C86.072 31.1889 81.624 35.677 76.144 35.677C70.664 35.677 66.216 31.1808 66.216 25.6415V5.46552H66.208ZM48.192 20.7977C48.944 21.3152 49.928 21.3152 50.68 20.7977L59.144 14.9592L61.792 16.7867V25.6496C61.792 31.197 57.344 35.685 51.864 35.685C46.384 35.685 41.936 31.1889 41.936 25.6496V16.4875L48.2 20.8057L48.192 20.7977ZM17.656 5.46552C24.208 4.12314 30.96 4.12314 37.52 5.46552V25.6415C37.52 31.1889 33.072 35.677 27.592 35.677C22.112 35.677 17.664 31.1808 17.664 25.6415V5.46552H17.656ZM123.584 56.8153C84.352 65.7833 43.64 65.7833 4.408 56.8153V34.561C4.52 29.3209 8.168 24.8409 13.232 23.725V25.6496C13.224 33.6472 19.632 40.1407 27.544 40.1488C32.488 40.1488 37.088 37.5773 39.712 33.3399C43.896 40.1165 52.72 42.1866 59.416 37.9574C61.264 36.7929 62.832 35.2079 63.984 33.3399C68.168 40.1165 76.992 42.1866 83.688 37.9574C85.536 36.7929 87.104 35.2079 88.256 33.3399C92.448 40.1246 101.288 42.1866 108 37.9493C112.192 35.2969 114.744 30.6471 114.736 25.6496V23.7331C119.808 24.849 123.456 29.3371 123.56 34.5772V56.8233L123.584 56.8153Z" fill="#78A3A9"/>
</svg>