<svg xmlns="http://www.w3.org/2000/svg" width="126" height="93" viewBox="0 0 126 93" fill="none">
<path d="M1.72099 35.9209H9.71578C9.62973 36.5655 9.53585 37.2495 9.41851 37.9963C7.97132 47.4928 11.9452 54.7803 20.8944 59.0648C21.7705 59.4893 22.7797 59.3714 23.5385 58.7582C24.3051 58.145 24.6336 57.1623 24.4068 56.1954C23.9531 54.3008 23.7106 52.1468 23.7106 49.9613C23.7106 42.4223 26.5737 36.7935 29.1239 36.7935C31.6741 36.7935 34.5372 42.4223 34.5372 49.9613C34.5372 52.1153 34.2947 54.2693 33.8409 56.1875C33.6063 57.1466 33.927 58.1293 34.6858 58.7503C35.1473 59.1277 35.6949 59.3163 36.2581 59.3163C36.6258 59.3163 36.9935 59.2377 37.3455 59.0648C46.2947 54.7725 50.2686 47.4928 48.8214 37.9963C48.6258 36.7306 48.485 35.6222 48.3755 34.6316C52.3181 33.8612 55.2594 32.7449 57.3168 31.2277C62.8005 27.1948 69.8488 25.5675 75.7158 26.9747C80.6128 28.1539 84.5085 31.3534 86.9726 36.2432C92.8318 47.8466 99.1056 46.6202 106.365 45.1973C108.508 44.7807 110.73 44.3404 113.218 44.136C117.207 43.798 120.508 44.9536 123.035 47.5715C123.372 47.9174 123.817 48.0982 124.271 48.0982C124.725 48.0982 125.132 47.9331 125.468 47.6108C126.149 46.9425 126.164 45.8498 125.507 45.1659C122.276 41.8169 117.927 40.2682 112.936 40.6928C110.261 40.9207 107.844 41.3924 105.716 41.8091C98.6284 43.2005 94.7327 43.9631 90.0469 34.6867C87.1134 28.8693 82.4355 25.0408 76.5215 23.6257C69.5984 21.9591 61.6662 23.7672 55.2986 28.4526C53.7418 29.5925 51.3481 30.5044 48.1721 31.1648C48.1956 27.808 49.1186 26.275 50.8553 23.4135C51.0196 23.1383 51.1917 22.8553 51.3716 22.5644C55.9087 15.0018 53.9687 7.57281 50.0339 3.55565C45.1056 -1.48349 40.146 -0.0212724 36.1565 1.15793C35.0769 1.47239 34.1617 1.7554 33.3716 1.99124C31.1421 2.67518 30.0156 3.01322 29.0926 3.01322C28.1695 3.01322 27.0821 2.67518 24.9153 2.00696C24.1173 1.76326 23.2021 1.48025 22.1069 1.15007C18.1095 -0.0291338 13.1499 -1.49921 8.21382 3.53993C4.27901 7.55709 2.33898 14.9861 6.87614 22.5487C7.05606 22.8475 7.22816 23.1305 7.39244 23.3977C9.33246 26.6052 10.2634 28.146 10.0443 32.4619H1.72099C0.774446 32.4619 0 33.2323 0 34.1914C0 35.1505 0.766623 35.9209 1.72099 35.9209ZM9.82529 20.7642C6.2425 14.7895 7.66623 9.02716 10.6701 5.96909C13.987 2.58084 16.8031 3.19403 21.1213 4.47543C22.2008 4.79775 23.1004 5.07289 23.8983 5.3166C28.8814 6.85743 29.2725 6.85743 34.3729 5.30087C35.1473 5.06503 36.0469 4.78989 37.1186 4.47543C41.4446 3.20189 44.2686 2.5887 47.5776 5.96909C50.5815 9.03502 52.0052 14.7974 48.4146 20.7642C48.2425 21.0551 48.0704 21.3381 47.9061 21.6054C44.8396 26.6759 43.94 28.7435 45.4263 38.523C46.5528 45.952 43.9791 51.3842 37.5724 55.0555C37.8383 53.4203 37.9791 51.7144 37.9791 49.9692C37.9791 40.4884 34.1695 33.3424 29.1239 33.3424C24.0782 33.3424 20.2686 40.4884 20.2686 49.9692C20.2686 51.7301 20.4016 53.436 20.6675 55.0555C14.2529 51.3764 11.6871 45.952 12.8214 38.523C14.3077 28.7435 13.4081 26.6759 10.3416 21.6054C10.1773 21.3381 10.013 21.0551 9.83312 20.7642H9.82529ZM126 91.2728C126 92.224 125.233 93.0023 124.279 93.0023H1.72099C0.766623 93.0023 0 92.2319 0 91.2728C0 90.3137 0.766623 89.5433 1.72099 89.5433H124.279C125.226 89.5433 126 90.3137 126 91.2728ZM91.7053 70.3144C93.1525 71.6115 94.3885 73.0108 95.3976 74.4652C95.9374 75.2435 96.8527 75.6287 97.7836 75.4793C98.7066 75.3299 99.442 74.6775 99.7079 73.7655C102.219 65.1338 99.7236 58.0664 92.4954 53.326C85.7679 48.9236 85.4159 47.7523 84.0939 43.3892C84.0078 43.1141 83.9296 42.8389 83.8357 42.5402C81.4967 34.9146 75.3325 31.7544 70.2555 31.9902C63.8879 32.2968 61.8696 36.5498 60.2503 39.9617C59.8201 40.8736 59.4602 41.6518 59.1551 42.3201C58.2868 44.2068 57.8488 45.1502 57.3168 45.7476C56.7849 46.3451 55.9244 46.8639 54.2112 47.9095C53.5776 48.2947 52.8344 48.7428 51.9583 49.2931C48.7588 51.282 44.7771 53.7584 45.1917 60.1732C45.528 65.2674 49.3533 71.0769 57.1525 72.547C57.4498 72.6021 57.7314 72.6571 58.0052 72.7042C62.4798 73.5297 63.6767 73.7577 68.7927 79.9917C72.4302 84.4177 76.8501 86.6503 81.8096 86.6503C84.3442 86.6503 87.0117 86.0686 89.7966 84.8972C90.6727 84.5356 91.2438 83.7259 91.2907 82.7747C91.3377 81.8234 90.8448 80.9508 90.0156 80.5027C88.4746 79.6694 86.9492 78.5845 85.502 77.2796C81.5828 73.7577 79.7053 69.9685 79.5802 67.7752C79.5411 67.0205 79.6819 66.4545 80.0182 66.0771C81.309 64.6228 86.3859 65.5268 91.7053 70.2987V70.3144ZM76.1382 67.9717C76.3416 71.5801 79.0482 76.1318 83.2021 79.866C84.2738 80.825 85.3768 81.6898 86.5111 82.4366C80.5033 84.3312 75.5593 82.7982 71.4446 77.7984C65.8044 70.9197 63.8722 70.2908 58.631 69.316C58.3572 69.2688 58.0834 69.2138 57.7862 69.1588C51.8018 68.0267 48.8683 63.7187 48.6258 59.9531C48.3598 55.818 50.4094 54.3322 53.7731 52.2332C54.6336 51.6987 55.369 51.2506 55.9948 50.8732C60.0235 48.4283 60.2581 48.1611 62.2842 43.7744C62.5893 43.1141 62.9413 42.3515 63.3638 41.4474C65.0691 37.8548 66.3207 35.6379 70.4276 35.4414C70.5606 35.4414 70.6858 35.4335 70.8188 35.4335C74.4876 35.4335 78.8214 37.902 80.558 43.5543C80.6441 43.8452 80.7301 44.1203 80.8083 44.3876C82.3572 49.5132 83.2021 51.3606 90.618 56.219C96.0391 59.7723 98.1043 64.5441 96.9074 70.7546C96.0391 69.7012 95.0613 68.6949 93.9974 67.728C87.6375 62.0206 80.5189 60.3226 77.4524 63.7737C76.5059 64.835 76.0521 66.2894 76.146 67.9638L76.1382 67.9717Z" fill="#A1A668"/>
</svg>