<svg xmlns="http://www.w3.org/2000/svg" width="126" height="114" viewBox="0 0 126 114" fill="none">
<path d="M108.349 54.6545C112.471 50.5932 117.104 47.0831 122.135 44.2054L125.251 42.422C125.965 42.0167 126.208 41.1087 125.802 40.3954C125.705 40.2251 125.575 40.0792 125.421 39.9576L119.628 35.4586C111.822 29.4112 105.38 21.7993 100.714 13.1093C94.1827 0.990271 79.0585 -3.54119 66.9283 2.98444C65.8329 3.57621 64.7862 4.24093 63.7963 4.98672L63.0012 5.57848L62.206 4.98672C51.1874 -3.27368 35.552 -1.03632 27.2921 9.97214C26.5456 10.9692 25.8722 12.0231 25.2799 13.1174C20.6144 21.8075 14.1639 29.4193 6.36647 35.4667L0.573177 39.9657C-0.0759316 40.4683 -0.189525 41.4006 0.313533 42.0491C0.435241 42.2031 0.58129 42.3328 0.751681 42.4301L3.8674 44.2135C10.8372 48.1856 17.0443 53.3818 22.1804 59.5507C29.994 68.9379 41.5887 74.3611 53.8082 74.3449H64.6483C59.9909 90.9467 69.687 108.181 86.3041 112.842C102.921 117.495 120.171 107.808 124.837 91.2062C128.926 76.639 121.973 61.245 108.341 54.6626L108.349 54.6545ZM8.2002 37.8094C16.3303 31.5108 23.0485 23.5746 27.9087 14.5198C33.6615 3.84372 46.9844 -0.144622 57.6622 5.6028C58.6278 6.12161 59.5528 6.71337 60.4209 7.36999L62.1005 8.62648C62.6279 9.02369 63.3582 9.02369 63.8856 8.62648L65.5651 7.36188C75.2774 0.0904625 89.0466 2.06031 96.3247 11.7555C96.982 12.631 97.5743 13.5552 98.0936 14.5198C102.962 23.5746 109.672 31.5108 117.802 37.8094L119.076 38.7984L110.759 37.5176C103.473 36.3989 96.8197 32.743 91.9595 27.2063C85.4846 19.8052 74.823 17.7056 66.0195 22.0993L63.0012 23.6071L59.9828 22.0993C51.1793 17.6975 40.5177 19.7971 34.0347 27.1982C29.1745 32.7348 22.5211 36.3827 15.2349 37.5095L6.91821 38.7903L8.19208 37.8094H8.2002ZM96.3329 34.9884C86.0445 40.4197 74.6283 43.3704 63.0012 43.6136C51.3659 43.3704 39.9497 40.4197 29.6695 34.9884C32.1198 33.3428 34.343 31.3811 36.2904 29.1599C41.8808 22.7802 51.0738 20.9725 58.6602 24.7663L62.3439 26.6064C62.7659 26.8172 63.2527 26.8172 63.6746 26.6064L67.3583 24.7663C74.9447 20.9806 84.1377 22.7802 89.7282 29.1599C91.6674 31.3811 93.8906 33.3347 96.3329 34.9884ZM53.8082 71.3699C42.465 71.3861 31.7141 66.352 24.4604 57.6376C19.2432 51.3714 12.963 46.0698 5.92021 41.9599L15.6893 40.4602C19.5352 39.8685 23.2433 38.6282 26.6754 36.788C37.8076 42.9489 50.2705 46.313 63.0012 46.5886C75.7237 46.313 88.1866 42.9489 99.3269 36.788C102.751 38.6201 106.467 39.8685 110.313 40.4602L120.082 41.9599C114.703 45.1052 109.761 48.9557 105.396 53.4061C89.4685 47.6506 71.8453 55.611 65.6625 71.3699H53.8163H53.8082ZM94.7507 111.018C79.1315 111.018 66.4739 98.3722 66.4739 82.7674C66.4739 67.1626 79.1315 54.5167 94.7507 54.5167C110.37 54.5167 123.027 67.1626 123.027 82.7674C123.011 98.3641 110.362 110.994 94.7507 111.018Z" fill="#CF90C4"/>
</svg>