<svg xmlns="http://www.w3.org/2000/svg" width="109" height="108" viewBox="0 0 109 108" fill="none">
<path d="M31.3873 33.9644C31.3873 34.9213 30.5944 35.707 29.6288 35.707C26.9046 35.707 24.2667 36.8894 22.4375 38.9432C20.5926 41.0125 19.7682 43.6808 20.098 46.4502L20.4512 49.2041C20.5768 50.1609 19.886 51.0322 18.9203 51.1567H18.7084C17.8291 51.1567 17.0754 50.511 16.9655 49.6241L16.6122 46.8703C16.1412 43.1051 17.2795 39.4722 19.7918 36.6327C22.304 33.8322 25.8761 32.2063 29.6131 32.2063C30.5787 32.2063 31.3716 32.992 31.3716 33.9489V33.9644H31.3873ZM109 22.6378C109 23.5946 108.207 24.3803 107.241 24.3803C101.848 24.3803 96.9098 27.1109 93.9893 31.5373C98.1188 35.8548 100.144 41.7982 99.3828 47.7338L99.0452 50.4876C98.0246 58.5314 95.0021 66.2485 90.3073 72.8142C88.5331 75.3036 87.0728 78.0575 85.9501 80.9669L78.0209 101.831C76.6313 105.503 73.0121 108 69.0239 108C66.6844 108 64.4391 107.168 62.7119 105.651C60.9926 104.173 59.8307 102.08 59.4931 99.7617L56.2272 76.0037C56.1251 75.1325 55.3636 74.4868 54.4843 74.4868C53.605 74.4868 52.867 75.1325 52.7414 75.9882L49.4755 99.7228C48.8082 104.422 44.7101 107.977 39.9525 107.977C38.0055 107.977 36.1214 107.401 34.5041 106.304C32.8868 105.168 31.6543 103.636 30.9713 101.831L23.9448 83.3552C22.0999 85.969 21.095 89.0496 21.095 92.3092C21.095 93.266 20.3021 94.0517 19.3364 94.0517C18.3708 94.0517 17.5779 93.266 17.5779 92.3092C17.5779 88.1317 15.9292 84.1953 12.9381 81.2314C9.94692 78.2675 5.97443 76.6339 1.75857 76.6339C0.792927 76.6339 0 75.8482 0 74.8913C0 73.9344 0.792927 73.1487 1.75857 73.1487C5.97443 73.1487 9.94692 71.5151 12.9381 68.5512C13.6211 67.8744 14.2177 67.1042 14.7673 66.303C14.0843 64.9416 13.4484 63.5724 12.9067 62.1722C11.4464 58.3914 10.4494 54.4706 9.93907 50.4876L9.60148 47.7182C8.82426 41.5337 10.9361 35.458 15.4189 31.055C19.9017 26.6519 26.0488 24.5904 32.2902 25.415L46.5786 27.3131C51.815 28.0133 57.1222 28.0133 62.3586 27.3131L76.647 25.415C76.9296 25.3839 77.2122 25.3839 77.487 25.345C75.7677 24.7148 73.9228 24.3725 72.0386 24.3725C71.073 24.3725 70.28 23.5868 70.28 22.63C70.28 21.6731 71.073 20.8874 72.0386 20.8874C76.2545 20.8874 80.2269 19.2538 83.2181 16.2899C86.2092 13.3259 87.8579 9.38961 87.8579 5.21213C87.8579 4.25528 88.6508 3.46957 89.6164 3.46957C90.5821 3.46957 91.375 4.25528 91.375 5.21213C91.375 9.38961 93.0237 13.3259 96.0148 16.2899C99.006 19.2538 102.978 20.8874 107.194 20.8874C108.16 20.8874 108.953 21.6731 108.953 22.63L108.984 22.6455L109 22.6378ZM23.3246 78.7187C24.9576 77.1006 26.8418 75.8093 28.8751 74.8835C26.8182 73.9422 24.9183 72.6353 23.2854 71.0172C21.6524 69.3991 20.3178 67.501 19.3678 65.4628C19.0695 66.124 18.7162 66.7542 18.3315 67.3609C17.5386 68.6834 16.5573 69.9203 15.4503 71.0017C13.8016 72.6353 11.9175 73.9267 9.86056 74.868C11.9175 75.8093 13.8173 77.1162 15.4503 78.7343C17.0833 80.3524 18.4022 82.235 19.3521 84.2731C20.3021 82.2194 21.6367 80.3368 23.3089 78.7032L23.3246 78.7187ZM92.3407 34.8824C92.1836 35.318 92.0423 35.7381 91.9167 36.1737C91.9167 36.2438 91.901 36.2982 91.8853 36.3682C91.7597 36.8739 91.6734 37.3795 91.6027 37.8852C91.587 38.0408 91.5713 38.1808 91.5477 38.3364C91.4771 38.912 91.4457 39.4877 91.4457 40.0634C91.4457 41.0202 90.6528 41.806 89.6871 41.806C88.7215 41.806 87.9285 41.0202 87.9285 40.0634C87.9285 39.5422 87.9128 39.0365 87.8579 38.5309C87.8579 38.3597 87.8029 38.1964 87.7872 38.0408C87.7558 37.7063 87.7009 37.364 87.6302 37.0295C87.5988 36.835 87.5438 36.6483 87.4889 36.4538C87.4182 36.1582 87.3476 35.8626 87.2612 35.567C87.2063 35.3569 87.1199 35.1702 87.0493 34.9757C86.9629 34.6957 86.853 34.4156 86.7509 34.1589C86.6646 33.9489 86.5782 33.7622 86.4683 33.5677C86.3427 33.3032 86.2406 33.0465 86.0993 32.7975C85.9973 32.603 85.8716 32.4163 85.7617 32.2219C85.6204 31.9807 85.4791 31.7318 85.3221 31.5062C85.1965 31.3117 85.0552 31.1405 84.9217 30.946C84.7647 30.7204 84.6077 30.4949 84.4271 30.2848C84.2858 30.1137 84.1288 29.9347 83.9718 29.7636C83.8304 29.608 83.6891 29.4524 83.5321 29.2968C81.4595 28.7601 79.3163 28.6356 77.1494 28.9157L62.8611 30.8138C57.3263 31.5451 51.6973 31.5451 46.1468 30.8138L31.8584 28.9157C26.6926 28.2389 21.6131 29.9425 17.9233 33.5832C14.2334 37.2239 12.4749 42.2416 13.1265 47.3604L13.4641 50.1142C13.9351 53.8094 14.8693 57.4657 16.2197 60.9819C16.3924 61.4487 16.5887 61.9077 16.8006 62.3744C16.8556 62.2188 16.9262 62.0632 16.9733 61.9077C17.0048 61.8065 17.044 61.6976 17.0597 61.5731C17.2167 60.9819 17.3423 60.3751 17.4287 59.7606C17.4287 59.6594 17.4444 59.5505 17.4601 59.4494C17.5465 58.8037 17.6014 58.158 17.6014 57.5201C17.6014 56.5633 18.3943 55.7776 19.36 55.7776C20.3256 55.7776 21.1186 56.5633 21.1186 57.5201C21.1186 61.6976 22.7672 65.6339 25.7584 68.5979C28.7495 71.5618 32.722 73.1954 36.9378 73.1954C37.9035 73.1954 38.6964 73.9811 38.6964 74.938C38.6964 75.8948 37.9035 76.6805 36.9378 76.6805C36.4275 76.6805 35.9329 76.7117 35.4462 76.7506C35.2892 76.7506 35.1086 76.805 34.9516 76.8206C34.614 76.8517 34.3 76.9061 33.986 76.9606C33.7897 76.9917 33.6013 77.0462 33.405 77.0851C33.1224 77.1551 32.8397 77.2095 32.565 77.2951C32.353 77.3496 32.1646 77.4196 31.9683 77.4896C31.7014 77.5752 31.4423 77.6607 31.1754 77.7696C30.9791 77.8397 30.775 77.9252 30.5787 78.0108C30.3353 78.1119 30.0841 78.2364 29.8407 78.3609C29.6445 78.462 29.4561 78.5554 29.2598 78.672C29.0164 78.8121 28.7887 78.9521 28.5532 79.0921C28.3805 79.2166 28.1842 79.3177 28.0115 79.4422C27.7838 79.5978 27.5562 79.7767 27.3285 79.9478C27.1715 80.0723 26.9909 80.2123 26.8339 80.329C26.779 80.3835 26.7083 80.4302 26.6612 80.4846L34.3235 100.633C34.7632 101.784 35.5326 102.757 36.5767 103.472C37.5973 104.173 38.7906 104.538 40.0389 104.538C43.0614 104.538 45.66 102.29 46.084 99.295L49.3499 75.5603C49.6875 72.9854 51.9328 71.0328 54.5706 71.0328C57.2085 71.0328 59.4538 72.9854 59.7914 75.5603L63.0573 99.2794C63.2693 100.742 63.9916 102.08 65.0985 103.021C66.2055 103.978 67.6108 104.523 69.1024 104.523C71.6304 104.523 73.9149 102.959 74.7942 100.625L82.7235 79.7611C83.9561 76.5716 85.5498 73.5766 87.5046 70.8461C91.8618 64.7315 94.6723 57.5746 95.6223 50.1065L95.9599 47.3759C96.5408 42.8328 95.2533 38.422 92.3956 34.9446L92.3407 34.9291V34.8824ZM99.1787 22.6378C97.1218 21.6965 95.2219 20.3895 93.5732 18.7714C91.9246 17.1378 90.6056 15.2708 89.6714 13.2326C88.7215 15.2708 87.4025 17.1534 85.7696 18.7714C84.1366 20.3895 82.2367 21.712 80.1798 22.6378C82.1975 23.5635 84.066 24.8471 85.6989 26.4341H85.7146C87.3868 28.091 88.7058 29.9659 89.6714 32.0274C89.8441 31.6462 90.0404 31.2806 90.2367 30.9149C92.2779 27.1887 95.4417 24.3181 99.1865 22.6066V22.6378H99.1787ZM0.031403 13.9327C0.031403 12.9759 0.82433 12.1902 1.78997 12.1902C7.60739 12.1902 12.3335 7.50702 12.3335 1.74256C12.3335 0.785709 13.1265 0 14.0921 0C15.0578 0 15.8507 0.785709 15.8507 1.74256C15.8507 7.50702 20.5768 12.1902 26.3943 12.1902C27.3599 12.1902 28.1528 12.9759 28.1528 13.9327C28.1528 14.8896 27.3599 15.6753 26.3943 15.6753C20.5768 15.6753 15.8507 20.3584 15.8507 26.1229C15.8507 27.0797 15.0578 27.8654 14.0921 27.8654C13.1265 27.8654 12.3335 27.0797 12.3335 26.1229C12.3335 20.3584 7.60739 15.6753 1.78997 15.6753C0.82433 15.6753 0.031403 14.8896 0.031403 13.9327ZM8.59659 13.9327C10.8969 15.2007 12.8124 17.0989 14.1 19.386C15.3796 17.1067 17.2952 15.2085 19.6034 13.9327C17.3031 12.6647 15.3875 10.7665 14.1 8.47943C12.8203 10.7588 10.9047 12.6569 8.59659 13.9327Z" fill="#678EAA"/>
</svg>
