<svg xmlns="http://www.w3.org/2000/svg" width="126" height="103" viewBox="0 0 126 103" fill="none">
<path d="M125.992 37.3977C125.992 35.027 125.496 32.7402 124.526 30.6058C123.923 29.2794 123.151 28.0445 122.219 26.9239C123.143 25.8034 123.915 24.5685 124.526 23.2421C125.504 21.1001 125.992 18.8132 125.992 16.4501C125.992 14.2319 125.557 12.0746 124.694 10.0469C123.861 8.08785 122.678 6.32697 121.165 4.81764C119.653 3.30832 117.889 2.11915 115.926 1.29589C113.894 0.434503 111.733 0 109.51 0C107.288 0 105.088 0.442126 103.041 1.30351C101.063 2.14202 99.2831 3.33881 97.7556 4.85576C96.228 6.38033 95.0289 8.15645 94.1964 10.1308C93.3257 12.1737 92.8903 14.3462 92.8903 16.5873V26.276C92.8903 37.8246 89.3235 49.0607 82.8391 57.9108C77.0038 65.8767 69.5876 70.6257 62.9962 70.6257C56.4048 70.6257 48.9885 65.8691 43.1533 57.9108C36.6688 49.0607 33.102 37.8246 33.102 26.276V16.5873C33.102 14.3462 32.659 12.1737 31.796 10.1308C30.9558 8.15645 29.7643 6.38033 28.2368 4.85576C26.7092 3.33119 24.9373 2.1344 22.9514 1.30351C20.8969 0.434503 18.7201 0 16.4823 0C14.2444 0 12.0982 0.434503 10.0666 1.29589C8.10365 2.12678 6.33933 3.30832 4.82706 4.81764C3.31478 6.32697 2.1233 8.08785 1.29842 10.0469C0.435352 12.0746 0 14.2319 0 16.4501C0 18.8208 0.496454 21.1001 1.46645 23.2421C2.06983 24.5685 2.84124 25.8034 3.77305 26.9239C2.84888 28.0445 2.07747 29.2718 1.46645 30.6058C0.496454 32.7478 0 35.0346 0 37.3977C0 42.566 2.40589 47.376 6.48445 50.4785C4.92635 53.3371 4.23895 56.6378 4.5521 59.8851C4.73541 61.8213 5.24714 63.6813 6.07965 65.427C6.88161 67.1116 7.95854 68.6362 9.27987 69.9549C11.3803 72.0588 13.9694 73.5377 16.8183 74.2771C16.7954 74.6506 16.7801 75.0241 16.7801 75.3976C16.7801 77.6159 17.2155 79.7732 18.0786 81.8008C18.9111 83.7599 20.0949 85.5208 21.6072 87.0301C23.1195 88.5395 24.8838 89.7286 26.8467 90.5519C28.8783 91.4133 31.0398 91.8478 33.2624 91.8478C34.3699 91.8478 35.4697 91.7411 36.5466 91.52L36.7681 92.1298C37.3333 93.7001 38.1429 95.1713 39.1588 96.4977C40.1669 97.8165 41.3584 98.9675 42.7103 99.928C45.5134 101.925 48.8281 102.985 52.2804 102.985C56.252 102.985 60.0175 101.59 63.0038 99.0285C65.9902 101.59 69.7556 102.985 73.7272 102.985C77.1795 102.985 80.4943 101.925 83.2973 99.928C84.6492 98.9675 85.8407 97.8088 86.8412 96.4977C87.8571 95.1637 88.659 93.6925 89.2319 92.1222L89.4534 91.5124C90.5303 91.7334 91.6301 91.8401 92.7376 91.8401C94.9602 91.8401 97.1217 91.4056 99.1533 90.5443C101.116 89.7134 102.881 88.5318 104.393 87.0225C105.905 85.5132 107.097 83.7523 107.921 81.7932C108.785 79.7655 109.22 77.6083 109.22 75.39C109.22 75.0165 109.205 74.643 109.182 74.2695C112.031 73.5301 114.612 72.0588 116.713 69.9626C118.034 68.6362 119.118 67.1116 119.92 65.427C120.753 63.6813 121.265 61.8213 121.448 59.8851C121.753 56.6302 121.066 53.3295 119.516 50.4785C123.594 47.376 126 42.566 126 37.3977H125.992ZM115.154 47.7419C114.375 48.1688 113.902 49.0149 113.94 49.8992C113.963 50.3947 114.139 50.8597 114.429 51.2256C116.224 53.581 117.056 56.5006 116.781 59.4506C116.262 64.9772 111.885 69.429 106.371 70.054C106.287 70.054 106.211 70.0693 106.127 70.0845C104.874 70.3132 104.041 71.4719 104.232 72.7296C104.24 72.7906 104.255 72.8516 104.263 72.8974C104.439 73.713 104.53 74.5515 104.53 75.39C104.53 81.8847 99.2373 87.1673 92.7299 87.1673C91.3628 87.1673 90.0338 86.9387 88.7583 86.4889C87.5439 86.0544 86.2073 86.6871 85.7643 87.8991L84.8096 90.5443C83.1217 95.1942 78.6612 98.312 73.7119 98.312C70.275 98.312 67.006 96.8179 64.7605 94.2109C64.3175 93.6925 63.6683 93.3952 62.9885 93.3952C62.4768 93.3952 61.988 93.5553 61.5832 93.8678C61.4304 93.9822 61.3006 94.1118 61.1784 94.249C58.9329 96.8255 55.6869 98.312 52.2651 98.312C47.3082 98.312 42.8478 95.1866 41.1675 90.5443L40.2128 87.8991C39.7774 86.6871 38.4332 86.0544 37.2188 86.4889C35.9509 86.9387 34.6143 87.1673 33.2471 87.1673C26.7398 87.1673 21.4468 81.8847 21.4468 75.39C21.4468 74.5439 21.5385 73.6978 21.7141 72.8745C21.8516 72.2342 21.7141 71.5634 21.3322 71.0221C20.9504 70.4885 20.3622 70.1379 19.7054 70.054H19.6443C14.1069 69.4442 9.70758 64.9848 9.18822 59.4354C8.91326 56.5006 9.73813 53.581 11.5254 51.2332C12.0218 50.6081 12.1669 49.7849 11.9149 49.0302C11.7163 48.4509 11.3115 47.9782 10.7616 47.6962C7.00382 45.6152 4.66667 41.6665 4.66667 37.3825C4.66667 34.0589 6.08729 30.8726 8.56192 28.6391C9.05074 28.1969 9.33333 27.5642 9.33333 26.9011C9.33333 26.2379 9.05074 25.6052 8.56192 25.163C6.08729 22.9295 4.66667 19.7432 4.66667 16.4196C4.66667 9.92496 9.95963 4.64232 16.467 4.64232C22.9744 4.64232 28.4048 9.98594 28.4048 16.5568V26.2455C28.4048 32.6868 29.4283 39.0519 31.4523 45.1578C32.3993 48.0087 33.5603 50.7911 34.9122 53.421C36.2259 55.9822 37.7229 58.4063 39.3573 60.6474C42.5881 65.0611 46.3993 68.7277 50.371 71.2508C52.4103 72.5467 54.4954 73.5453 56.5652 74.2237C58.7267 74.9327 60.8882 75.2909 62.9733 75.2909C65.0584 75.2909 67.2199 74.9327 69.3813 74.2237C71.4588 73.5453 73.5439 72.5467 75.5756 71.2508C79.5472 68.7277 83.3584 65.0611 86.5892 60.6474C88.2237 58.4139 89.7207 55.9822 91.0344 53.421C92.3862 50.7911 93.5472 48.0087 94.4943 45.1578C96.5183 39.0519 97.5417 32.6944 97.5417 26.2455V16.5568C97.5417 9.98594 102.896 4.64232 109.48 4.64232C116.063 4.64232 121.28 9.92496 121.28 16.4196C121.28 19.7356 119.867 22.9143 117.43 25.1249C116.911 25.5671 116.613 26.215 116.613 26.8934C116.613 27.5719 116.911 28.2198 117.423 28.6619C119.875 30.8878 121.272 34.0589 121.272 37.3672C121.272 41.6741 118.912 45.638 115.124 47.7114L115.154 47.7419Z" fill="#C08080"/>
</svg>