<svg width="388" height="69" viewBox="0 0 388 69" fill="none" xmlns="http://www.w3.org/2000/svg">
    <g clip-path="url(#clip0_19_734)">
        <path d="M111.01 11.2899V37.6299C111.01 39.2699 110.08 40.2499 108.53 40.2499C107.07 40.2499 106.14 39.2699 106.14 37.6299V37.4099H106.05C104.41 39.4099 101.88 40.5099 98.69 40.5099C92.44 40.5099 88.31 36.0799 88.31 29.3799C88.31 22.6799 92.43 18.2099 98.69 18.2099C101.88 18.2099 104.41 19.3199 106.05 21.3099H106.14V11.2899C106.14 9.68992 107.07 8.66992 108.53 8.66992C110.08 8.66992 111.01 9.68992 111.01 11.2899ZM106.13 29.3799C106.13 25.4299 103.47 22.6799 99.66 22.6799C95.85 22.6799 93.27 25.3799 93.27 29.3799C93.27 33.3799 95.89 36.0299 99.66 36.0299C103.43 36.0299 106.13 33.2799 106.13 29.3799Z" fill="white"/>
        <path d="M127.9 20.7798C127.9 22.2898 126.92 23.2198 125.46 23.2198C121.2 23.2198 118.72 25.4798 118.72 30.6698V37.6298C118.72 39.2698 117.83 40.2498 116.28 40.2498C114.73 40.2498 113.84 39.2698 113.84 37.6298V21.0898C113.84 19.4898 114.77 18.4698 116.28 18.4698C117.79 18.4698 118.72 19.4898 118.72 21.0898V21.8898H118.81C120.14 19.5798 122.4 18.3398 125.46 18.3398C126.92 18.3398 127.9 19.2698 127.9 20.7798Z" fill="white"/>
        <path d="M149.14 21.09V37.63C149.14 39.27 148.21 40.25 146.66 40.25C145.2 40.25 144.27 39.27 144.27 37.63V37.41H144.18C142.54 39.41 140.01 40.51 136.82 40.51C130.57 40.51 126.44 36.08 126.44 29.38C126.44 22.68 130.56 18.21 136.82 18.21C140.01 18.21 142.54 19.32 144.18 21.31H144.27V21.09C144.27 19.49 145.2 18.47 146.66 18.47C148.21 18.47 149.14 19.49 149.14 21.09ZM144.26 29.38C144.26 25.43 141.6 22.68 137.79 22.68C133.98 22.68 131.4 25.38 131.4 29.38C131.4 33.38 134.02 36.03 137.79 36.03C141.56 36.03 144.26 33.28 144.26 29.38Z" fill="white"/>
        <path d="M152.11 37.2298C152.11 35.4598 153.31 34.2598 155.13 34.2598C156.95 34.2598 158.1 35.4598 158.1 37.2298C158.1 38.9998 156.9 40.2498 155.13 40.2498C153.36 40.2498 152.11 39.0498 152.11 37.2298Z" fill="white"/>
        <path d="M180.04 40.51C173.03 40.51 168.42 35.99 168.42 29.38C168.42 22.77 173.03 18.21 179.82 18.21C185.98 18.21 190.68 22.64 190.68 28.05V28.27C190.68 30 189.53 31.11 187.8 31.11H173.57C174.15 34.21 176.63 36.17 180.04 36.17C182.35 36.17 184.12 35.24 185.18 34C185.71 33.38 186.29 33.11 187 33.11C188.42 33.11 189.31 34 189.31 35.37C189.31 35.9 189.13 36.39 188.78 36.83C186.83 39.18 183.77 40.51 180.04 40.51ZM173.57 27.21H185.94C185.27 24.37 182.92 22.55 179.82 22.55C176.72 22.55 174.23 24.37 173.57 27.21Z" fill="white"/>
        <path d="M206.29 20.7798C206.29 22.2898 205.31 23.2198 203.85 23.2198C199.59 23.2198 197.11 25.4798 197.11 30.6698V37.6298C197.11 39.2698 196.22 40.2498 194.67 40.2498C193.12 40.2498 192.23 39.2698 192.23 37.6298V21.0898C192.23 19.4898 193.16 18.4698 194.67 18.4698C196.18 18.4698 197.11 19.4898 197.11 21.0898V21.8898H197.2C198.53 19.5798 200.79 18.3398 203.85 18.3398C205.31 18.3398 206.29 19.2698 206.29 20.7798Z" fill="white"/>
        <path d="M206.56 12.22C206.56 10.45 207.71 9.29004 209.44 9.29004C211.17 9.29004 212.37 10.44 212.37 12.22C212.37 14 211.22 15.15 209.44 15.15C207.66 15.15 206.56 14 206.56 12.22ZM211.88 21.09V37.63C211.88 39.27 210.99 40.25 209.44 40.25C207.89 40.25 207 39.27 207 37.63V21.09C207 19.49 207.93 18.47 209.44 18.47C210.95 18.47 211.88 19.49 211.88 21.09Z" fill="white"/>
        <path d="M233.69 35.8099C234.18 36.3899 234.53 36.9599 234.53 37.8099C234.53 39.2699 233.55 40.2499 232.09 40.2499C231.25 40.2499 230.54 39.8499 230.01 39.1899L223.09 30.8099L219.63 33.4699V37.6399C219.63 39.2799 218.74 40.2599 217.19 40.2599C215.64 40.2599 214.75 39.2799 214.75 37.6399V11.2899C214.75 9.64992 215.68 8.66992 217.19 8.66992C218.7 8.66992 219.63 9.64992 219.63 11.2899V28.0099L230.01 19.3199C230.68 18.7899 231.21 18.4799 231.96 18.4799C233.38 18.4799 234.31 19.4599 234.31 20.8699C234.31 21.6699 234.04 22.2899 233.33 22.8199L226.86 27.8799L233.69 35.8199V35.8099Z" fill="white"/>
        <path d="M257.06 21.09V37.63C257.06 39.27 256.13 40.25 254.58 40.25C253.12 40.25 252.19 39.27 252.19 37.63V37.41H252.1C250.46 39.41 247.93 40.51 244.74 40.51C238.49 40.51 234.36 36.08 234.36 29.38C234.36 22.68 238.48 18.21 244.74 18.21C247.93 18.21 250.46 19.32 252.1 21.31H252.19V21.09C252.19 19.49 253.12 18.47 254.58 18.47C256.13 18.47 257.06 19.49 257.06 21.09ZM252.18 29.38C252.18 25.43 249.52 22.68 245.71 22.68C241.9 22.68 239.32 25.38 239.32 29.38C239.32 33.38 241.94 36.03 245.71 36.03C249.48 36.03 252.18 33.28 252.18 29.38Z" fill="white"/>
        <path d="M287.88 20.8697C287.88 21.3097 287.79 21.6697 287.53 22.1997L279.68 38.3397C279.1 39.5797 278.17 40.2497 276.89 40.2497C275.61 40.2497 274.67 39.5397 274.05 38.2997L266.42 22.5997C266.11 21.9797 265.93 21.4897 265.93 20.9097C265.93 19.4897 266.86 18.4697 268.32 18.4697C269.52 18.4697 270.18 19.0497 270.67 20.1097L276.92 33.6797H277.01L283.22 20.1097C283.71 19.0497 284.33 18.4697 285.57 18.4697C286.99 18.4697 287.88 19.4497 287.88 20.8597V20.8697Z" fill="white"/>
        <path d="M288.1 12.22C288.1 10.45 289.25 9.29004 290.98 9.29004C292.71 9.29004 293.91 10.44 293.91 12.22C293.91 14 292.76 15.15 290.98 15.15C289.2 15.15 288.1 14 288.1 12.22ZM293.42 21.09V37.63C293.42 39.27 292.53 40.25 290.98 40.25C289.43 40.25 288.54 39.27 288.54 37.63V21.09C288.54 19.49 289.47 18.47 290.98 18.47C292.49 18.47 293.42 19.49 293.42 21.09Z" fill="white"/>
        <path d="M317.27 28.1V37.63C317.27 39.27 316.38 40.25 314.83 40.25C313.28 40.25 312.39 39.27 312.39 37.63V28.63C312.39 24.77 310.53 22.69 307.02 22.69C303.51 22.69 301.17 25.22 301.17 29.3V37.64C301.17 39.28 300.28 40.26 298.73 40.26C297.18 40.26 296.29 39.28 296.29 37.64V21.1C296.29 19.46 297.22 18.48 298.73 18.48C300.24 18.48 301.17 19.46 301.17 21.1V21.23H301.26C302.77 19.32 305.16 18.21 308.27 18.21C314.12 18.21 317.27 21.67 317.27 28.1Z" fill="white"/>
        <path d="M341.53 11.2899V37.6299C341.53 39.2699 340.6 40.2499 339.05 40.2499C337.59 40.2499 336.66 39.2699 336.66 37.6299V37.4099H336.57C334.93 39.4099 332.4 40.5099 329.21 40.5099C322.96 40.5099 318.83 36.0799 318.83 29.3799C318.83 22.6799 322.95 18.2099 329.21 18.2099C332.4 18.2099 334.93 19.3199 336.57 21.3099H336.66V11.2899C336.66 9.68992 337.59 8.66992 339.05 8.66992C340.6 8.66992 341.53 9.68992 341.53 11.2899ZM336.65 29.3799C336.65 25.4299 333.99 22.6799 330.18 22.6799C326.37 22.6799 323.79 25.3799 323.79 29.3799C323.79 33.3799 326.41 36.0299 330.18 36.0299C333.95 36.0299 336.65 33.2799 336.65 29.3799Z" fill="white"/>
        <path d="M366.22 21.09V37.63C366.22 39.27 365.29 40.25 363.74 40.25C362.28 40.25 361.35 39.27 361.35 37.63V37.41H361.26C359.62 39.41 357.09 40.51 353.9 40.51C347.65 40.51 343.52 36.08 343.52 29.38C343.52 22.68 347.64 18.21 353.9 18.21C357.09 18.21 359.62 19.32 361.26 21.31H361.35V21.09C361.35 19.49 362.28 18.47 363.74 18.47C365.29 18.47 366.22 19.49 366.22 21.09ZM361.35 29.38C361.35 25.43 358.69 22.68 354.88 22.68C351.07 22.68 348.49 25.38 348.49 29.38C348.49 33.38 351.11 36.03 354.88 36.03C358.65 36.03 361.35 33.28 361.35 29.38Z" fill="white"/>
        <path d="M378.06 26.9897C384.93 26.9897 387.5 29.0697 387.5 33.6397C387.5 37.9397 384 40.5097 378.19 40.5097C373.67 40.5097 370.92 39.7597 368.7 37.8897C368.21 37.4497 367.95 36.8297 367.95 36.2097C367.95 34.7897 368.88 33.8597 370.17 33.8597C370.61 33.8597 371.1 33.9897 371.59 34.3497C373.32 35.6397 375.27 36.2097 377.8 36.2097C380.82 36.2097 382.63 35.2297 382.63 33.5897C382.63 32.1697 381.39 31.5097 377.44 31.5097C370.74 31.5097 368.17 29.5097 368.17 25.1197C368.17 20.7297 371.76 18.1997 377.53 18.1997C381.17 18.1997 383.52 18.8197 385.6 20.3697C386.27 20.8597 386.58 21.5197 386.58 22.2297C386.58 23.6497 385.65 24.5797 384.36 24.5797C383.69 24.5797 383.12 24.2697 382.63 23.9097C381.39 22.9797 379.7 22.4897 377.84 22.4897C374.96 22.4897 373.1 23.5097 373.1 25.1497C373.1 26.4397 374.25 26.9697 378.07 26.9697L378.06 26.9897Z" fill="white"/>
        <path d="M98.93 57.9296V60.2296H88.01V48.5596H90.68V57.9296H98.93Z" fill="white"/>
        <path d="M104.13 60.2296V48.5596H106.8V60.2296H104.13Z" fill="white"/>
        <path d="M126.51 57.0296C126.51 59.0996 124.74 60.2296 121.94 60.2296H113.25V48.5596H121.27C124.07 48.5596 125.84 49.6596 125.84 51.5396C125.84 52.8696 124.97 54.0096 123.24 54.1196C125.07 54.2196 126.51 55.1696 126.51 57.0196V57.0296ZM115.89 53.2996H120.84C122.29 53.2996 123.19 53.0696 123.19 51.9796C123.19 50.8896 122.29 50.6596 120.84 50.6596H115.89V53.2896V53.2996ZM123.78 56.7296C123.78 55.5496 122.9 55.3296 121.4 55.3296H115.9V58.1296H121.4C122.9 58.1296 123.78 57.8996 123.78 56.7296Z" fill="white"/>
        <path d="M144.18 57.9996V60.2296H132.16V48.5596H144.01V50.7896H134.81V53.1896H142.5V55.4196H134.81V57.9896H144.18V57.9996Z" fill="white"/>
        <path d="M160.04 60.2296L156.69 56.2596H152.47V60.2296H149.82V48.5596H157.87C160.72 48.5596 162.87 49.8796 162.87 52.4096C162.87 54.3896 161.55 55.6296 159.62 56.0796L163.22 60.2296H160.04ZM157.72 54.0696C159.12 54.0696 160.15 53.7396 160.15 52.4396C160.15 51.1396 159.12 50.8096 157.72 50.8096H152.45V54.0796H157.72V54.0696Z" fill="white"/>
        <path d="M178.16 57.7698H171.11L169.86 60.2398H167.01L173.2 48.5698H176.12L182.31 60.2398H179.43L178.18 57.7698H178.16ZM177.04 55.5998L174.62 50.8498L172.2 55.5998H177.03H177.04Z" fill="white"/>
        <path d="M200.5 48.5596V60.2296H198.17L189.8 51.7896V60.2296H187.22V48.5596H190.05L197.92 56.5596V48.5596H200.5Z" fill="white"/>
        <path d="M220.39 54.3998C220.39 58.0298 217.57 60.2398 213.17 60.2398H206.97V48.5698H213.17C217.57 48.5698 220.39 50.7698 220.39 54.3998ZM217.67 54.3998C217.67 51.9998 215.77 50.8298 212.97 50.8298H209.64V57.9698H212.97C215.77 57.9698 217.67 56.7998 217.67 54.3998Z" fill="white"/>
        <path d="M225.35 54.3997C225.35 50.4997 228.22 48.1997 232.77 48.1997C237.32 48.1997 240.19 50.4997 240.19 54.3997C240.19 58.2997 237.32 60.5997 232.77 60.5997C228.22 60.5997 225.35 58.2997 225.35 54.3997ZM237.47 54.3997C237.47 51.8997 235.65 50.4997 232.77 50.4997C229.89 50.4997 228.07 51.8997 228.07 54.3997C228.07 56.8997 229.87 58.2997 232.77 58.2997C235.67 58.2997 237.47 56.8997 237.47 54.3997Z" fill="white"/>
        <path d="M266.26 56.6997C266.26 58.9997 264.08 60.5997 259.94 60.5997C256.99 60.5997 254.59 59.7697 252.8 58.2497L254.33 56.4297C255.76 57.7497 257.61 58.3597 260 58.3597C262.39 58.3597 263.57 57.9097 263.57 56.9397C263.57 55.9697 262.37 55.7097 259.69 55.4697C256.36 55.1897 253.25 54.4497 253.25 51.9497C253.25 49.4497 255.85 48.1797 259.45 48.1797C262 48.1797 264.2 48.8097 265.69 49.9597L264.22 51.8097C262.94 50.8297 261.35 50.4297 259.45 50.4097C257.87 50.3897 255.93 50.6797 255.93 51.7397C255.93 52.7397 257.6 52.8397 259.91 53.0197C263.63 53.3197 266.25 54.0997 266.25 56.6697L266.26 56.6997Z" fill="white"/>
        <path d="M271.01 54.3997C271.01 50.4997 273.88 48.1997 278.43 48.1997C282.98 48.1997 285.85 50.4997 285.85 54.3997C285.85 58.2997 282.98 60.5997 278.43 60.5997C273.88 60.5997 271.01 58.2997 271.01 54.3997ZM283.13 54.3997C283.13 51.8997 281.31 50.4997 278.43 50.4997C275.55 50.4997 273.73 51.8997 273.73 54.3997C273.73 56.8997 275.53 58.2997 278.43 58.2997C281.33 58.2997 283.13 56.8997 283.13 54.3997Z" fill="white"/>
        <path d="M304.87 48.5596V60.2296H302.54L294.17 51.7896V60.2296H291.59V48.5596H294.42L302.29 56.5596V48.5596H304.87Z" fill="white"/>
        <path d="M321.56 60.2296L318.21 56.2596H313.99V60.2296H311.34V48.5596H319.39C322.24 48.5596 324.39 49.8796 324.39 52.4096C324.39 54.3896 323.07 55.6296 321.14 56.0796L324.74 60.2296H321.56ZM319.24 54.0696C320.64 54.0696 321.67 53.7396 321.67 52.4396C321.67 51.1396 320.64 50.8096 319.24 50.8096H313.97V54.0796H319.24V54.0696Z" fill="white"/>
        <path d="M330.21 60.2296V48.5596H332.88V60.2296H330.21Z" fill="white"/>
        <path d="M351.73 56.6997C351.73 58.9997 349.55 60.5997 345.41 60.5997C342.46 60.5997 340.06 59.7697 338.27 58.2497L339.8 56.4297C341.23 57.7497 343.08 58.3597 345.47 58.3597C347.86 58.3597 349.04 57.9097 349.04 56.9397C349.04 55.9697 347.84 55.7097 345.16 55.4697C341.83 55.1897 338.72 54.4497 338.72 51.9497C338.72 49.4497 341.32 48.1797 344.92 48.1797C347.47 48.1797 349.67 48.8097 351.16 49.9597L349.69 51.8097C348.41 50.8297 346.82 50.4297 344.92 50.4097C343.34 50.3897 341.4 50.6797 341.4 51.7397C341.4 52.7397 343.07 52.8397 345.38 53.0197C349.1 53.3197 351.72 54.0997 351.72 56.6697L351.73 56.6997Z" fill="white"/>
        <path d="M366.49 57.7698H359.44L358.19 60.2398H355.34L361.53 48.5698H364.45L370.64 60.2398H367.76L366.51 57.7698H366.49ZM365.37 55.5998L362.95 50.8498L360.53 55.5998H365.36H365.37Z" fill="white"/>
        <path d="M387.51 56.6997C387.51 58.9997 385.33 60.5997 381.19 60.5997C378.24 60.5997 375.84 59.7697 374.05 58.2497L375.58 56.4297C377.01 57.7497 378.86 58.3597 381.25 58.3597C383.64 58.3597 384.82 57.9097 384.82 56.9397C384.82 55.9697 383.62 55.7097 380.94 55.4697C377.61 55.1897 374.5 54.4497 374.5 51.9497C374.5 49.4497 377.1 48.1797 380.7 48.1797C383.25 48.1797 385.45 48.8097 386.94 49.9597L385.47 51.8097C384.19 50.8297 382.6 50.4297 380.7 50.4097C379.12 50.3897 377.18 50.6797 377.18 51.7397C377.18 52.7397 378.85 52.8397 381.16 53.0197C384.88 53.3197 387.5 54.0997 387.5 56.6697L387.51 56.6997Z" fill="white"/>
        <path d="M63.63 30C65.95 30 67.42 32.51 66.27 34.53L52.58 58.75C49.16 64.8 42.73 68.55 35.79 68.55C28.85 68.55 22.41 64.79 19 58.75L5.30999 34.53C4.16999 32.51 5.62999 30 7.94999 30C9.03999 30 10.05 30.59 10.59 31.54L24.28 55.77C26.62 59.91 31.03 62.48 35.79 62.48C40.55 62.48 44.96 59.91 47.3 55.76L60.99 31.54C61.53 30.59 62.54 30 63.63 30Z" fill="white"/>
        <path d="M35.79 40.2401C28.54 40.2401 22.44 35.2101 20.8 28.4501C20.35 26.5901 21.8 24.8101 23.71 24.8101C25.1 24.8101 26.28 25.7701 26.62 27.1201C27.65 31.2201 31.38 34.2701 35.8 34.2701C40.22 34.2701 43.94 31.2201 44.98 27.1201C45.32 25.7701 46.5 24.8101 47.89 24.8101C49.8 24.8101 51.25 26.5901 50.8 28.4501C49.16 35.2101 43.06 40.2401 35.81 40.2401H35.79Z" fill="white"/>
        <path d="M71.32 23.2502C71.31 23.3002 71.3 23.3602 71.29 23.4102C71.23 23.7102 70.97 23.9302 70.66 23.9302H69.37C67.25 23.9302 65.49 22.2202 65.51 20.1102V19.9802C65.51 13.4502 60.93 7.68019 54.53 6.37019C49.29 5.29019 44.14 7.17019 40.87 11.1502C40.86 11.1702 40.85 11.1802 40.84 11.2002C40.76 11.3102 40.68 11.4202 40.6 11.5302C40.58 11.5502 40.57 11.5802 40.55 11.5902C40.52 11.6402 40.48 11.6802 40.44 11.7302C40.42 11.7602 40.39 11.7902 40.37 11.8102C40.34 11.8502 40.3 11.8902 40.26 11.9302C40.22 11.9702 40.18 12.0102 40.15 12.0502C39.01 13.2202 37.42 13.8902 35.79 13.8902C34.16 13.8902 32.57 13.2202 31.43 12.0502C31.41 12.0302 31.39 12.0002 31.37 11.9802C31.35 11.9602 31.33 11.9302 31.31 11.9102C31.25 11.8502 31.21 11.8002 31.16 11.7402C31.08 11.6502 31.01 11.5702 30.95 11.4802C30.88 11.3902 30.81 11.3002 30.75 11.2002C30.74 11.1802 30.73 11.1702 30.72 11.1502C27.45 7.17019 22.28 5.29019 17.03 6.38019C10.64 7.70019 6.06999 13.4702 6.07999 19.9902V20.1202C6.09999 22.2302 4.34999 23.9302 2.23999 23.9302H0.929994C0.619994 23.9302 0.349994 23.7102 0.299994 23.4102C0.299994 23.3602 0.279994 23.3002 0.269994 23.2502C-1.65001 11.6902 6.93999 0.810185 18.63 0.0401855C25.22 -0.389814 31.47 2.38019 35.56 7.48019C35.61 7.56019 35.67 7.62019 35.71 7.69019C35.74 7.72019 35.76 7.75019 35.78 7.78019C35.8 7.75019 35.83 7.72019 35.85 7.69019C35.89 7.64019 35.93 7.59019 35.97 7.54019C35.99 7.52019 36 7.51019 36.01 7.49019V7.48019C40.12 2.38019 46.37 -0.389814 52.96 0.0401855C64.65 0.810185 73.24 11.6902 71.32 23.2502Z" fill="white"/>
        <path d="M31.43 12.05C31.43 12.05 31.39 12 31.37 11.98C31.39 12 31.41 12.03 31.43 12.05Z" fill="white"/>
        <path d="M40.27 11.9302C40.27 11.9302 40.2 12.0102 40.16 12.0502C40.16 12.0502 40.24 11.9702 40.27 11.9302Z" fill="white"/>
    </g>
    <defs>
        <clipPath id="clip0_19_734">
            <rect width="387.51" height="68.56" fill="white"/>
        </clipPath>
    </defs>
</svg>
